<svg id="visual" viewBox="0 0 900 600" width="900" height="600" xmlns="http://www.w3.org/2000/svg" xmlns:xlink="http://www.w3.org/1999/xlink" version="1.1"><rect x="0" y="0" width="900" height="600" fill="#001220"></rect><path d="M0 73L21.5 73.5C43 74 86 75 128.8 74.5C171.7 74 214.3 72 257.2 71.3C300 70.7 343 71.3 385.8 74.7C428.7 78 471.3 84 514.2 83.8C557 83.7 600 77.3 642.8 77.3C685.7 77.3 728.3 83.7 771.2 88.2C814 92.7 857 95.3 878.5 96.7L900 98L900 0L878.5 0C857 0 814 0 771.2 0C728.3 0 685.7 0 642.8 0C600 0 557 0 514.2 0C471.3 0 428.7 0 385.8 0C343 0 300 0 257.2 0C214.3 0 171.7 0 128.8 0C86 0 43 0 21.5 0L0 0Z" fill="#fa7268"></path><path d="M0 79L21.5 74.5C43 70 86 61 128.8 57.3C171.7 53.7 214.3 55.3 257.2 56.3C300 57.3 343 57.7 385.8 58.7C428.7 59.7 471.3 61.3 514.2 61.2C557 61 600 59 642.8 57C685.7 55 728.3 53 771.2 56.3C814 59.7 857 68.3 878.5 72.7L900 77L900 0L878.5 0C857 0 814 0 771.2 0C728.3 0 685.7 0 642.8 0C600 0 557 0 514.2 0C471.3 0 428.7 0 385.8 0C343 0 300 0 257.2 0C214.3 0 171.7 0 128.8 0C86 0 43 0 21.5 0L0 0Z" fill="#f64f76"></path><path d="M0 47L21.5 45C43 43 86 39 128.8 37.8C171.7 36.7 214.3 38.3 257.2 42.2C300 46 343 52 385.8 51.5C428.7 51 471.3 44 514.2 42.7C557 41.3 600 45.7 642.8 49.2C685.7 52.7 728.3 55.3 771.2 55.8C814 56.3 857 54.7 878.5 53.8L900 53L900 0L878.5 0C857 0 814 0 771.2 0C728.3 0 685.7 0 642.8 0C600 0 557 0 514.2 0C471.3 0 428.7 0 385.8 0C343 0 300 0 257.2 0C214.3 0 171.7 0 128.8 0C86 0 43 0 21.5 0L0 0Z" fill="#e82a8c"></path><path d="M0 25L21.5 26.8C43 28.7 86 32.3 128.8 33.2C171.7 34 214.3 32 257.2 31.7C300 31.3 343 32.7 385.8 32C428.7 31.3 471.3 28.7 514.2 29.3C557 30 600 34 642.8 35.8C685.7 37.7 728.3 37.3 771.2 36.3C814 35.3 857 33.7 878.5 32.8L900 32L900 0L878.5 0C857 0 814 0 771.2 0C728.3 0 685.7 0 642.8 0C600 0 557 0 514.2 0C471.3 0 428.7 0 385.8 0C343 0 300 0 257.2 0C214.3 0 171.7 0 128.8 0C86 0 43 0 21.5 0L0 0Z" fill="#ca10a9"></path><path d="M0 13L21.5 13.2C43 13.3 86 13.7 128.8 15.5C171.7 17.3 214.3 20.7 257.2 21.5C300 22.3 343 20.7 385.8 19.7C428.7 18.7 471.3 18.3 514.2 19.7C557 21 600 24 642.8 23.7C685.7 23.3 728.3 19.7 771.2 18.3C814 17 857 18 878.5 18.5L900 19L900 0L878.5 0C857 0 814 0 771.2 0C728.3 0 685.7 0 642.8 0C600 0 557 0 514.2 0C471.3 0 428.7 0 385.8 0C343 0 300 0 257.2 0C214.3 0 171.7 0 128.8 0C86 0 43 0 21.5 0L0 0Z" fill="#9524c7"></path></svg>